<?xml version="1.0" encoding="utf-8"?>
<svg viewBox="589.209 392.889 345.27 395.488" style="enable-background:new 0 0 1600 1200;" xmlns="http://www.w3.org/2000/svg">
  <defs>
    <style type="text/css">
	.st0{fill:url(#SVGID_1_);}
	.st1{fill:url(#SVGID_2_);}
	.st2{fill:url(#SVGID_3_);}
	.st3{fill:url(#SVGID_4_);}
</style>
  </defs>
  <g>
    <g>
      <g transform="matrix(1, 0, 0, 1, 191.365677, -9.400366)">
        <linearGradient id="SVGID_1_" gradientUnits="userSpaceOnUse" x1="462.3314" y1="753.4324" x2="614.5736" y2="505.0372">
          <stop offset="0" style="stop-color:#6ACFFF"/>
          <stop offset="1" style="stop-color:#9515FF"/>
        </linearGradient>
        <path class="st0" d="M633.8,763.1l-8.9,5.2l-46.2,26.9c-5.5,3.2-12.2,3.2-17.7,0l-154.4-89.9c-5.4-3.2-8.7-8.9-8.7-15.2V574.1 c0-6.2,3.3-12,8.7-15.2l99.6-57.9c5.4-3.1,12.1-3.1,17.5,0l46.3,27l8.8,5.1c-5.4-3.1-12.1-3.1-17.5,0c0,0-0.1,0-0.1,0 l-45.2,26.3c0,0-0.1,0-0.1,0.1l-8.7,5l-45.3,26.3c0,0,0,0-0.1,0c-5.4,3.2-8.7,8.9-8.7,15.2v52c0,6.2,3.3,12,8.7,15.2 c0,0,0.1,0,0.1,0l154.2,89.8c0,0,0.1,0,0.1,0.1C621.7,766.2,628.4,766.2,633.8,763.1z"/>
        <linearGradient id="SVGID_2_" gradientUnits="userSpaceOnUse" x1="397.9172" y1="537.215" x2="689.0834" y2="537.215">
          <stop offset="0" style="stop-color:#6ACFFF"/>
          <stop offset="1" style="stop-color:#9515FF"/>
        </linearGradient>
        <path class="st1" d="M689.1,543.3v49.3c0,6.2-3.3,12-8.7,15.2l-46.5,27.1l-8.6,5c5.3-3.2,8.6-8.9,8.6-15.2v-49.4 c0-6.2-3.3-12-8.7-15.2c0,0-0.1,0-0.1-0.1l-46.4-27c0,0-0.1,0-0.1,0l-8.8-5.1l-46.3-27c-5.4-3.1-12.1-3.1-17.5,0l-99.6,57.9 c-5.4,3.2-8.7,8.9-8.7,15.2V510c0-6.3,3.3-12.1,8.7-15.2l99.3-57.8c5.4-3.2,12.1-3.2,17.6-0.1l156.9,91.3 C685.8,531.4,689.1,537.1,689.1,543.3z"/>
        <linearGradient id="SVGID_3_" gradientUnits="userSpaceOnUse" x1="645.0708" y1="415.4939" x2="595.5312" y2="696.4467">
          <stop offset="0" style="stop-color:#6ACFFF"/>
          <stop offset="1" style="stop-color:#9515FF"/>
        </linearGradient>
        <path class="st2" d="M743.1,510.7v114.6c0,6.2-3.3,12-8.7,15.2L633.7,699c-5.4,3.1-12.1,3.1-17.5,0l-46.3-26.9l-8.7-5.1 c5.4,3.1,12.1,3.1,17.5,0c0,0,0.1,0,0.1-0.1l46.4-27c0,0,0.1,0,0.1-0.1c0,0,0,0,0,0l8.6-5l46.5-27.1c5.4-3.2,8.7-8.9,8.7-15.2 v-49.3c0-6.2-3.3-11.9-8.6-15.1l-156.9-91.3c-5.5-3.1-12.2-3.1-17.6,0.1l8.9-5.2l46.2-26.9c5.5-3.2,12.2-3.2,17.7,0l155.6,90.5 C739.8,498.6,743.1,504.4,743.1,510.7z"/>
        <linearGradient id="SVGID_4_" gradientUnits="userSpaceOnUse" x1="766.8199" y1="726.6121" x2="407.8488" y2="593.6004">
          <stop offset="0" style="stop-color:#6ACFFF"/>
          <stop offset="1" style="stop-color:#9515FF"/>
        </linearGradient>
        <path class="st3" d="M743.1,625.2v64.1c0,6.3-3.3,12.1-8.7,15.2l-100.5,58.5c-5.4,3.2-12.2,3.2-17.6,0.1c0,0-0.1,0-0.1-0.1 l-154.2-89.8c0,0-0.1,0-0.1,0c-5.4-3.2-8.7-8.9-8.7-15.2v-52c0-6.2,3.3-12,8.7-15.2c0,0,0,0,0.1,0l45.3-26.3l8.7-5 c-5.4,3.2-8.7,8.9-8.7,15.2v50.8c0,6.2,3.3,12,8.7,15.2l45.4,26.4l8.7,5.1l46.3,26.9c5.4,3.1,12.1,3.1,17.5,0l100.7-58.6 C739.8,637.2,743.1,631.5,743.1,625.2z"/>
      </g>
      <g/>
    </g>
  </g>
</svg>